<?xml version="1.0" encoding="utf-8"?>
<!-- Generator: Adobe Illustrator 17.1.0, SVG Export Plug-In . SVG Version: 6.00 Build 0)  -->
<!DOCTYPE svg PUBLIC "-//W3C//DTD SVG 1.1//EN" "http://www.w3.org/Graphics/SVG/1.1/DTD/svg11.dtd">
<svg version="1.1" id="Layer_1" xmlns="http://www.w3.org/2000/svg" xmlns:xlink="http://www.w3.org/1999/xlink" x="0px" y="0px"
	 viewBox="0 0 512 512" enable-background="new 0 0 512 512" xml:space="preserve">
<g>
	<path fill="#29ABE2" d="M241.4,194.1v-64.8h-22.6c-42.6,0-50.2,21.5-50.2,21.5l-18,43.3H241.4z"/>
	<linearGradient id="SVGID_1_" gradientUnits="userSpaceOnUse" x1="9.1885" y1="161.6606" x2="125.7047" y2="161.6606">
		<stop  offset="1.320110e-002" style="stop-color:#00A4E4"/>
		<stop  offset="0.8332" style="stop-color:#23F083"/>
	</linearGradient>
	<path fill="url(#SVGID_1_)" d="M219.6,129.2H0l0.1,0.2l17.8,42.8c0,0,7.7,21.8,35.9,21.8h165.9V129.2z"/>
	<linearGradient id="SVGID_2_" gradientUnits="userSpaceOnUse" x1="157.6294" y1="350.3394" x2="270.6981" y2="350.3394">
		<stop  offset="1.320110e-002" style="stop-color:#00A4E4"/>
		<stop  offset="0.8332" style="stop-color:#23F083"/>
	</linearGradient>
	<path fill="url(#SVGID_2_)" d="M368.1,317.9v64.8H246.3c-42.6,0-50.2-21.5-50.2-21.5l-18-43.3H368.1z"/>
	<linearGradient id="SVGID_3_" gradientUnits="userSpaceOnUse" x1="438.396" y1="256" x2="126.2299" y2="256">
		<stop  offset="0.1934" style="stop-color:#0067B7"/>
		<stop  offset="0.4875" style="stop-color:#043D7A"/>
		<stop  offset="0.8332" style="stop-color:#0A092E"/>
	</linearGradient>
	<path fill="url(#SVGID_3_)" d="M499,194.1c-10.1-19.6-25.4-36.1-44.2-47.5c-18-11-39.2-17.3-61.8-17.3H218.7
		c-42.6,0-50.2,21.5-50.2,21.5l-18,43.3h293.6c0.4,0,0.8,0,1.2,0h0.4c0.5,0,1,0,1.5,0c34.2,0,61.9,27.7,61.9,61.9
		c0,34.2-27.7,61.9-61.9,61.9c-0.5,0-1,0-1.5,0h-0.4c-0.4,0-0.8,0-1.2,0H287h-33.6l18,43.3c0,0,7.6,21.5,50.2,21.5h50.6
		c3.5,0,7-0.2,10.4-0.5c3.4,0.3,6.9,0.5,10.4,0.5c46.2,0,86.3-26.3,106-64.8c8.3-16.2,13-34.7,13-54.2v-15.5
		C512,228.7,507.3,210.3,499,194.1z"/>
	<linearGradient id="SVGID_4_" gradientUnits="userSpaceOnUse" x1="88.1868" y1="256" x2="402.2769" y2="256">
		<stop  offset="1.320110e-002" style="stop-color:#00A4E4"/>
		<stop  offset="0.8332" style="stop-color:#23F083"/>
	</linearGradient>
	<path fill="url(#SVGID_4_)" d="M450.8,254.5l-71.1-90.8v59.9H89.8l17.9,42.9c0,0,9.1,21.5,42.7,21.5h229.2v60.4L450.8,254.5z"/>
</g>
</svg>
